<svg width="22" height="22" viewBox="0 0 22 22" fill="none" xmlns="http://www.w3.org/2000/svg">
<path d="M3.14645 20.0132L3.53832 19.3737V19.3737L3.14645 20.0132ZM1.49574 18.3625L2.13522 17.9706H2.13522L1.49574 18.3625ZM20.0221 18.3625L19.3827 17.9706V17.9706L20.0221 18.3625ZM18.3714 20.0132L17.9796 19.3737V19.3737L18.3714 20.0132ZM18.3714 4.4868L17.9796 5.12628V5.12628L18.3714 4.4868ZM20.0221 6.13751L19.3827 6.52938V6.52938L20.0221 6.13751ZM3.14645 4.4868L3.53832 5.12628H3.53832L3.14645 4.4868ZM1.49574 6.13751L2.13522 6.52938H2.13522L1.49574 6.13751ZM17.2357 1.29645L17.777 0.777276V0.777276L17.2357 1.29645ZM2.60316 1.64079L3.056 2.23865V2.23865L2.60316 1.64079ZM1.61338 2.67267L2.2287 3.10148L1.61338 2.67267ZM17.7589 3.88032H18.5089L18.5089 3.87662L17.7589 3.88032ZM17.1226 12.3637C17.5368 12.3637 17.8726 12.0279 17.8726 11.6137C17.8726 11.1994 17.5368 10.8637 17.1226 10.8637V11.6137V12.3637ZM14.3953 10.8637C13.9811 10.8637 13.6453 11.1994 13.6453 11.6137C13.6453 12.0279 13.9811 12.3637 14.3953 12.3637V11.6137V10.8637ZM9.25894 3.75V4.5H12.2589V3.75V3H9.25894V3.75ZM12.2589 20.75V20H9.25894V20.75V21.5H12.2589V20.75ZM9.25894 20.75V20C7.6077 20 6.42194 19.9992 5.49703 19.9113C4.58327 19.8244 4.00185 19.6578 3.53832 19.3737L3.14645 20.0132L2.75457 20.6527C3.49339 21.1054 4.3315 21.3072 5.35505 21.4045C6.36743 21.5008 7.63675 21.5 9.25894 21.5V20.75ZM0.75894 12.25H0.0089395C0.0089395 13.8722 0.00814825 15.1415 0.104407 16.1539C0.201726 17.1774 0.403508 18.0155 0.856259 18.7544L1.49574 18.3625L2.13522 17.9706C1.85117 17.5071 1.68455 16.9257 1.59767 16.0119C1.50973 15.087 1.50894 13.9012 1.50894 12.25H0.75894ZM3.14645 20.0132L3.53832 19.3737C2.96646 19.0233 2.48566 18.5425 2.13522 17.9706L1.49574 18.3625L0.856259 18.7544C1.33038 19.5281 1.98088 20.1786 2.75457 20.6527L3.14645 20.0132ZM12.2589 20.75V21.5C13.8811 21.5 15.1504 21.5008 16.1628 21.4045C17.1864 21.3072 18.0245 21.1054 18.7633 20.6527L18.3714 20.0132L17.9796 19.3737C17.516 19.6578 16.9346 19.8244 16.0209 19.9113C15.0959 19.9992 13.9102 20 12.2589 20V20.75ZM20.0221 18.3625L19.3827 17.9706C19.0322 18.5425 18.5514 19.0233 17.9796 19.3737L18.3714 20.0132L18.7633 20.6527C19.537 20.1786 20.1875 19.5281 20.6616 18.7544L20.0221 18.3625ZM18.3714 4.4868L17.9796 5.12628C18.5514 5.47672 19.0322 5.95752 19.3827 6.52938L20.0221 6.13751L20.6616 5.74563C20.1875 4.97194 19.537 4.32144 18.7633 3.84732L18.3714 4.4868ZM9.25894 3.75V3C7.63675 3 6.36743 2.99921 5.35505 3.09547C4.3315 3.19279 3.49339 3.39457 2.75457 3.84732L3.14645 4.4868L3.53832 5.12628C4.00185 4.84223 4.58327 4.67561 5.49703 4.58873C6.42194 4.50079 7.6077 4.5 9.25894 4.5V3.75ZM0.75894 12.25H1.50894C1.50894 10.5988 1.50973 9.413 1.59767 8.48809C1.68455 7.57434 1.85117 6.99291 2.13522 6.52938L1.49574 6.13751L0.856259 5.74563C0.403508 6.48445 0.201726 7.32256 0.104407 8.34611C0.00814825 9.3585 0.0089395 10.6278 0.0089395 12.25H0.75894ZM3.14645 4.4868L2.75457 3.84732C1.98088 4.32144 1.33038 4.97194 0.856259 5.74563L1.49574 6.13751L2.13522 6.52938C2.48566 5.95752 2.96646 5.47672 3.53832 5.12628L3.14645 4.4868ZM8.81201 0.75V1.5H14.1807V0.75V0H8.81201V0.75ZM14.1807 0.75V1.5C15.0464 1.5 15.6171 1.50173 16.0403 1.56105C16.4386 1.61687 16.5935 1.71039 16.6945 1.81562L17.2357 1.29645L17.777 0.777276C17.3538 0.336062 16.8248 0.156351 16.2485 0.0755668C15.697 -0.00172842 15.0023 0 14.1807 0V0.75ZM8.81201 0.75V0C7.15181 0 5.84388 -0.00111771 4.80622 0.116088C3.7526 0.235096 2.88863 0.483701 2.15031 1.04293L2.60316 1.64079L3.056 2.23865C3.49373 1.90709 4.05658 1.7103 4.97458 1.60661C5.90853 1.50112 7.117 1.5 8.81201 1.5V0.75ZM0.75894 9.14563H1.50894C1.50894 7.38063 1.50989 6.11468 1.61173 5.13472C1.71229 4.16704 1.90443 3.56679 2.2287 3.10148L1.61338 2.67267L0.998065 2.24385C0.467889 3.00462 0.232809 3.89188 0.119763 4.97968C0.00799143 6.0552 0.0089395 7.4127 0.0089395 9.14563H0.75894ZM2.60316 1.64079L2.15031 1.04293C1.707 1.37872 1.31838 1.78422 0.998065 2.24385L1.61338 2.67267L2.2287 3.10148C2.46028 2.76918 2.7397 2.47823 3.056 2.23865L2.60316 1.64079ZM17.7589 3.88032L18.5089 3.87662C18.5056 3.19995 18.4912 2.61358 18.4064 2.12747C18.3184 1.62228 18.1443 1.16025 17.777 0.777276L17.2357 1.29645L16.6945 1.81562C16.7878 1.91295 16.872 2.05988 16.9287 2.38506C16.9887 2.72932 17.0055 3.19473 17.0089 3.88403L17.7589 3.88032ZM0.75894 9.14563H0.0089395C0.0089395 10.1213 -0.0112209 11.0142 0.00919652 11.7702L0.758923 11.75L1.50865 11.7298C1.48889 10.9982 1.50894 10.174 1.50894 9.14563H0.75894ZM20.2589 14.3409V13.5909H14.3953V14.3409V15.0909H20.2589V14.3409ZM11.668 11.6137H10.918C10.918 13.5341 12.4749 15.0909 14.3953 15.0909V14.3409V13.5909C13.3033 13.5909 12.418 12.7057 12.418 11.6137H11.668ZM11.668 11.6137H12.418C12.418 10.5216 13.3033 9.63638 14.3953 9.63638V8.88638V8.13638C12.4749 8.13638 10.918 9.69321 10.918 11.6137H11.668ZM17.1226 11.6137V10.8637H14.3953V11.6137V12.3637H17.1226V11.6137ZM12.2589 3.75V4.5C13.6436 4.5 14.7038 4.50032 15.5624 4.5533C16.4202 4.60623 17.0199 4.70942 17.4927 4.88895L17.7589 4.18781L18.0252 3.48667C17.3451 3.22839 16.5708 3.11267 15.6548 3.05615C14.7396 2.99968 13.6263 3 12.2589 3V3.75ZM17.7589 4.18781L17.4927 4.88895C17.6697 4.95619 17.83 5.0346 17.9796 5.12628L18.3714 4.4868L18.7633 3.84732C18.5299 3.70427 18.285 3.58534 18.0252 3.48667L17.7589 4.18781ZM17.7589 3.88032H17.0089V4.18781H17.7589H18.5089V3.88032H17.7589ZM14.3953 8.88638V9.63638H20.7033V8.88638V8.13638H14.3953V8.88638ZM20.7589 12.25H21.5089C21.5089 10.8755 21.5093 9.7577 21.4519 8.83959L20.7033 8.88638L19.9548 8.93316C20.0086 9.79394 20.0089 10.858 20.0089 12.25H20.7589ZM20.7033 8.88638L21.4519 8.83959C21.3735 7.58476 21.1836 6.59749 20.6616 5.74563L20.0221 6.13751L19.3827 6.52938C19.7116 7.0661 19.8813 7.75707 19.9548 8.93316L20.7033 8.88638ZM20.7589 12.25H20.0089C20.0089 13.0375 20.0089 13.7222 19.9989 14.3285L20.7488 14.3409L21.4986 14.3534C21.509 13.7321 21.5089 13.0339 21.5089 12.25H20.7589ZM20.7488 14.3409L19.9989 14.3285C19.9663 16.287 19.8224 17.2531 19.3827 17.9706L20.0221 18.3625L20.6616 18.7544C21.3418 17.6444 21.4666 16.2813 21.4986 14.3534L20.7488 14.3409ZM20.2589 14.3409V15.0909H20.7488V14.3409V13.5909H20.2589V14.3409Z" fill="#0E0E0E"/>
</svg>
