<svg width="62" height="54" viewBox="0 0 62 54" fill="none" xmlns="http://www.w3.org/2000/svg">
<rect width="62" height="54" rx="10" fill="#D6EAF7"/>
<path d="M41.108 32.1009H22.67C22.2602 32.1005 21.8673 31.9375 21.5775 31.6477C21.2878 31.3579 21.1247 30.965 21.1243 30.5552V21.3297C21.1247 20.9199 21.2877 20.527 21.5775 20.2372C21.8673 19.9474 22.2601 19.7844 22.67 19.7839H41.108C41.5178 19.7844 41.9107 19.9474 42.2005 20.2372C42.4902 20.527 42.6532 20.9199 42.6537 21.3297V30.5552C42.6532 30.965 42.4902 31.3579 42.2005 31.6477C41.9107 31.9375 41.5178 32.1005 41.108 32.1009Z" fill="url(#paint0_linear_2_4412)"/>
<path d="M38.9838 34.225H20.5457C20.1359 34.2245 19.7431 34.0616 19.4533 33.7718C19.1636 33.4821 19.0005 33.0893 19 32.6795V23.454C19.0005 23.0441 19.1635 22.6513 19.4532 22.3615C19.743 22.0717 20.1359 21.9087 20.5457 21.9082H38.9838C39.3936 21.9087 39.7865 22.0717 40.0762 22.3615C40.366 22.6512 40.529 23.0441 40.5294 23.454V32.6795C40.5289 33.0893 40.3659 33.4821 40.0761 33.7718C39.7864 34.0616 39.3935 34.2246 38.9838 34.225Z" fill="url(#paint1_linear_2_4412)"/>
<path d="M29.7347 31.4135C29.0669 31.4135 28.414 31.2155 27.8587 30.8444C27.3034 30.4734 26.8705 29.946 26.615 29.329C26.3594 28.7119 26.2925 28.033 26.4228 27.3779C26.5531 26.7229 26.8747 26.1212 27.347 25.649C27.8192 25.1767 28.4209 24.8551 29.0759 24.7248C29.731 24.5945 30.4099 24.6614 31.027 24.917C31.644 25.1725 32.1714 25.6054 32.5424 26.1607C32.9135 26.716 33.1115 27.3689 33.1115 28.0367C33.1105 28.932 32.7544 29.7903 32.1214 30.4234C31.4883 31.0564 30.63 31.4125 29.7347 31.4135ZM29.7347 25.91C29.3141 25.91 28.9029 26.0347 28.5531 26.2684C28.2034 26.5021 27.9308 26.8343 27.7698 27.2229C27.6088 27.6115 27.5667 28.0392 27.6488 28.4517C27.7309 28.8643 27.9334 29.2433 28.2309 29.5407C28.5283 29.8381 28.9073 30.0407 29.3198 30.1227C29.7324 30.2048 30.16 30.1627 30.5487 30.0017C30.9373 29.8407 31.2694 29.5681 31.5031 29.2183C31.7368 28.8686 31.8615 28.4574 31.8615 28.0367C31.8609 27.4729 31.6366 26.9323 31.2379 26.5336C30.8392 26.1349 30.2986 25.9106 29.7347 25.91Z" fill="url(#paint2_linear_2_4412)"/>
<defs>
<linearGradient id="paint0_linear_2_4412" x1="43.0708" y1="37.1242" x2="22.0057" y2="16.0591" gradientUnits="userSpaceOnUse">
<stop stop-color="#0C9258"/>
<stop offset="1" stop-color="#89D935"/>
</linearGradient>
<linearGradient id="paint1_linear_2_4412" x1="43.489" y1="41.791" x2="24.9541" y2="23.2561" gradientUnits="userSpaceOnUse">
<stop stop-color="#0C9258"/>
<stop offset="1" stop-color="#89D935"/>
</linearGradient>
<linearGradient id="paint2_linear_2_4412" x1="37.0764" y1="35.3785" x2="27.2422" y2="25.5442" gradientUnits="userSpaceOnUse">
<stop stop-color="#B3B3B3"/>
<stop offset="1" stop-color="white"/>
</linearGradient>
</defs>
</svg>
