<svg width="20" height="20" viewBox="0 0 20 20" fill="none" xmlns="http://www.w3.org/2000/svg">
<path d="M4.21756 17.5377L4.6584 16.9309L4.21756 17.5377ZM3.29576 16.6159L3.90253 16.175L3.29576 16.6159ZM16.7042 16.6159L16.0975 16.175L16.7042 16.6159ZM15.7824 17.5377L16.2233 18.1444L15.7824 17.5377ZM15.7824 4.12918L16.2233 3.52241L15.7824 4.12918ZM16.7042 5.05098L16.0975 5.49182L16.7042 5.05098ZM4.21756 4.12918L4.6584 4.73594V4.73594L4.21756 4.12918ZM3.29576 5.05098L3.90253 5.49182L3.29576 5.05098ZM16.0149 13.3847L15.8975 12.6439V12.6439L16.0149 13.3847ZM12.5513 16.8483L11.8105 16.7309V16.7309L12.5513 16.8483ZM11.75 4.16675C11.75 4.58096 12.0858 4.91675 12.5 4.91675C12.9142 4.91675 13.25 4.58096 13.25 4.16675H12.5H11.75ZM13.25 1.66675C13.25 1.25253 12.9142 0.916748 12.5 0.916748C12.0858 0.916748 11.75 1.25253 11.75 1.66675H12.5H13.25ZM6.75 4.16675C6.75 4.58096 7.08579 4.91675 7.5 4.91675C7.91421 4.91675 8.25 4.58096 8.25 4.16675H7.5H6.75ZM8.25 1.66675C8.25 1.25253 7.91421 0.916748 7.5 0.916748C7.08579 0.916748 6.75 1.25253 6.75 1.66675H7.5H8.25ZM17.4759 13.3334L18.2255 13.3591L17.4759 13.3334ZM12.5 18.3093L12.5257 19.0589L12.5 18.3093ZM10 18.3334V17.5834C8.42091 17.5834 7.29683 17.5824 6.4285 17.4883C5.57421 17.3958 5.05688 17.2204 4.6584 16.9309L4.21756 17.5377L3.77672 18.1444C4.47352 18.6507 5.28502 18.8732 6.26693 18.9796C7.23481 19.0844 8.45432 19.0834 10 19.0834V18.3334ZM2.5 10.8334H1.75C1.75 12.3791 1.74897 13.5986 1.85383 14.5665C1.96022 15.5484 2.18275 16.3599 2.689 17.0567L3.29576 16.6159L3.90253 16.175C3.61301 15.7765 3.43766 15.2592 3.34511 14.4049C3.25103 13.5366 3.25 12.4125 3.25 10.8334H2.5ZM4.21756 17.5377L4.6584 16.9309C4.36834 16.7202 4.11326 16.4651 3.90253 16.175L3.29576 16.6159L2.689 17.0567C2.99226 17.4741 3.35932 17.8412 3.77672 18.1444L4.21756 17.5377ZM16.7042 16.6159L16.0975 16.175C15.8867 16.4651 15.6317 16.7202 15.3416 16.9309L15.7824 17.5377L16.2233 18.1444C16.6407 17.8412 17.0077 17.4741 17.311 17.0567L16.7042 16.6159ZM17.5 10.8334H18.25C18.25 9.28773 18.251 8.06823 18.1462 7.10035C18.0398 6.11843 17.8173 5.30693 17.311 4.61014L16.7042 5.05098L16.0975 5.49182C16.387 5.89029 16.5623 6.40763 16.6549 7.26192C16.749 8.13024 16.75 9.25432 16.75 10.8334H17.5ZM15.7824 4.12918L15.3416 4.73594C15.6317 4.94668 15.8867 5.20176 16.0975 5.49182L16.7042 5.05098L17.311 4.61014C17.0077 4.19274 16.6407 3.82567 16.2233 3.52241L15.7824 4.12918ZM2.5 10.8334H3.25C3.25 9.25432 3.25103 8.13024 3.34511 7.26192C3.43766 6.40763 3.61301 5.89029 3.90253 5.49182L3.29576 5.05098L2.689 4.61014C2.18275 5.30693 1.96022 6.11843 1.85383 7.10035C1.74897 8.06823 1.75 9.28773 1.75 10.8334H2.5ZM4.21756 4.12918L3.77672 3.52241C3.35932 3.82567 2.99226 4.19274 2.689 4.61014L3.29576 5.05098L3.90253 5.49182C4.11326 5.20176 4.36834 4.94668 4.6584 4.73594L4.21756 4.12918ZM16.0149 13.3847L15.8975 12.6439C13.7937 12.9772 12.1437 14.6271 11.8105 16.7309L12.5513 16.8483L13.2921 16.9656C13.5236 15.5036 14.6702 14.357 16.1322 14.1255L16.0149 13.3847ZM7.5 4.16675H8.25V3.35752H7.5H6.75V4.16675H7.5ZM7.5 3.35752H8.25V1.66675H7.5H6.75V3.35752H7.5ZM10 3.33341V2.58341C9.03005 2.58341 8.19352 2.58332 7.47432 2.60796L7.5 3.35752L7.52568 4.10708C8.21372 4.08351 9.02174 4.08341 10 4.08341V3.33341ZM7.5 3.35752L7.47432 2.60796C5.91157 2.6615 4.72962 2.8301 3.77672 3.52241L4.21756 4.12918L4.6584 4.73594C5.21318 4.33287 5.98145 4.15999 7.52568 4.10708L7.5 3.35752ZM12.5 4.16675H13.25V3.35752H12.5H11.75V4.16675H12.5ZM12.5 3.35752H13.25V1.66675H12.5H11.75V3.35752H12.5ZM10 3.33341V4.08341C10.9783 4.08341 11.7863 4.08351 12.4743 4.10708L12.5 3.35752L12.5257 2.60796C11.8065 2.58332 10.97 2.58341 10 2.58341V3.33341ZM12.5 3.35752L12.4743 4.10708C14.0185 4.15999 14.7868 4.33287 15.3416 4.73594L15.7824 4.12918L16.2233 3.52241C15.2704 2.8301 14.0884 2.6615 12.5257 2.60796L12.5 3.35752ZM17.4759 13.3334L17.4759 12.5834C16.7452 12.5834 16.2908 12.5817 15.8975 12.6439L16.0149 13.3847L16.1322 14.1255C16.3799 14.0862 16.6903 14.0834 17.4759 14.0834L17.4759 13.3334ZM17.5 10.8334H16.75C16.75 11.8117 16.7499 12.6197 16.7263 13.3077L17.4759 13.3334L18.2255 13.3591C18.2501 12.6399 18.25 11.8034 18.25 10.8334H17.5ZM17.4759 13.3334L16.7263 13.3077C16.6734 14.852 16.5005 15.6202 16.0975 16.175L16.7042 16.6159L17.311 17.0567C18.0033 16.1038 18.1719 14.9218 18.2255 13.3591L17.4759 13.3334ZM12.5 18.3093L13.25 18.3093C13.25 17.5237 13.2528 17.2134 13.2921 16.9656L12.5513 16.8483L11.8105 16.7309C11.7482 17.1242 11.75 17.5787 11.75 18.3093L12.5 18.3093ZM10 18.3334V19.0834C10.97 19.0834 11.8065 19.0835 12.5257 19.0589L12.5 18.3093L12.4743 17.5597C11.7863 17.5833 10.9783 17.5834 10 17.5834V18.3334ZM12.5 18.3093L12.5257 19.0589C14.0884 19.0053 15.2704 18.8367 16.2233 18.1444L15.7824 17.5377L15.3416 16.9309C14.7868 17.334 14.0185 17.5068 12.4743 17.5597L12.5 18.3093Z" fill="white"/>
<path d="M6.66667 7.50008C6.66667 7.96032 6.29357 8.33341 5.83333 8.33341C5.3731 8.33341 5 7.96032 5 7.50008C5 7.03984 5.3731 6.66675 5.83333 6.66675C6.29357 6.66675 6.66667 7.03984 6.66667 7.50008Z" fill="white"/>
<path d="M6.66667 10.8334C6.66667 11.2937 6.29357 11.6667 5.83333 11.6667C5.3731 11.6667 5 11.2937 5 10.8334C5 10.3732 5.3731 10.0001 5.83333 10.0001C6.29357 10.0001 6.66667 10.3732 6.66667 10.8334Z" fill="white"/>
<path d="M10.8333 7.50008C10.8333 7.96032 10.4602 8.33341 10 8.33341C9.53976 8.33341 9.16667 7.96032 9.16667 7.50008C9.16667 7.03984 9.53976 6.66675 10 6.66675C10.4602 6.66675 10.8333 7.03984 10.8333 7.50008Z" fill="white"/>
<path d="M10.8333 10.8334C10.8333 11.2937 10.4602 11.6667 10 11.6667C9.53976 11.6667 9.16667 11.2937 9.16667 10.8334C9.16667 10.3732 9.53976 10.0001 10 10.0001C10.4602 10.0001 10.8333 10.3732 10.8333 10.8334Z" fill="white"/>
<path d="M10.8333 14.1667C10.8333 14.627 10.4602 15.0001 10 15.0001C9.53976 15.0001 9.16667 14.627 9.16667 14.1667C9.16667 13.7065 9.53976 13.3334 10 13.3334C10.4602 13.3334 10.8333 13.7065 10.8333 14.1667Z" fill="white"/>
<path d="M15 7.50008C15 7.96032 14.6269 8.33341 14.1667 8.33341C13.7064 8.33341 13.3333 7.96032 13.3333 7.50008C13.3333 7.03984 13.7064 6.66675 14.1667 6.66675C14.6269 6.66675 15 7.03984 15 7.50008Z" fill="white"/>
<path d="M15 10.8334C15 11.2937 14.6269 11.6667 14.1667 11.6667C13.7064 11.6667 13.3333 11.2937 13.3333 10.8334C13.3333 10.3732 13.7064 10.0001 14.1667 10.0001C14.6269 10.0001 15 10.3732 15 10.8334Z" fill="white"/>
<path d="M6.66667 14.1667C6.66667 14.627 6.29357 15.0001 5.83333 15.0001C5.3731 15.0001 5 14.627 5 14.1667C5 13.7065 5.3731 13.3334 5.83333 13.3334C6.29357 13.3334 6.66667 13.7065 6.66667 14.1667Z" fill="white"/>
</svg>
