<svg width="27" height="27" viewBox="0 0 27 27" fill="none" xmlns="http://www.w3.org/2000/svg">
<path d="M13.3463 0C20.9119 0 26.6393 6.20295 26.6393 13.2997C26.6393 21.5302 19.9262 26.6393 13.3197 26.6393C11.1352 26.6393 8.71107 26.0524 6.76639 24.9052C6.08709 24.4917 5.51434 24.1848 4.78176 24.425L2.09119 25.2253C1.41189 25.4388 0.79918 24.9052 0.998975 24.1848L1.89139 21.1968C2.03791 20.7832 2.01127 20.343 1.79816 19.9962C0.652664 17.8885 0 15.5807 0 13.3397C0 6.32301 5.60758 0 13.3463 0ZM19.4334 11.6455C18.4877 11.6455 17.7285 12.4059 17.7285 13.353C17.7285 14.2868 18.4877 15.0605 19.4334 15.0605C20.3791 15.0605 21.1383 14.2868 21.1383 13.353C21.1383 12.4059 20.3791 11.6455 19.4334 11.6455ZM13.293 11.6455C12.3607 11.6322 11.5881 12.4059 11.5881 13.3397C11.5881 14.2868 12.3473 15.0472 13.293 15.0605C14.2387 15.0605 14.998 14.2868 14.998 13.353C14.998 12.4059 14.2387 11.6455 13.293 11.6455ZM7.15266 11.6455C6.20697 11.6455 5.44775 12.4059 5.44775 13.353C5.44775 14.2868 6.22029 15.0605 7.15266 15.0605C8.09836 15.0472 8.85758 14.2868 8.85758 13.353C8.85758 12.4059 8.09836 11.6455 7.15266 11.6455Z" fill="#8ABAE2"/>
</svg>
