<svg width="20" height="20" viewBox="0 0 20 20" fill="none" xmlns="http://www.w3.org/2000/svg">
<path d="M4.42079 6.92173C4.25765 7.08515 4.16602 7.30664 4.16602 7.53756C4.16602 7.76848 4.25765 7.98997 4.42079 8.15339L9.34079 13.0784C9.53079 13.2684 9.78746 13.3534 10.0358 13.3301C10.2608 13.3301 10.485 13.2459 10.6558 13.0751L15.5783 8.15256C15.6591 8.07174 15.7232 7.9758 15.767 7.8702C15.8107 7.76461 15.8332 7.65144 15.8332 7.53714C15.8332 7.42285 15.8107 7.30968 15.767 7.20408C15.7232 7.09849 15.6591 7.00254 15.5783 6.92173C15.4975 6.84091 15.4015 6.7768 15.2959 6.73306C15.1903 6.68933 15.0772 6.66681 14.9629 6.66681C14.8486 6.66681 14.7354 6.68933 14.6298 6.73306C14.5242 6.7768 14.4283 6.84091 14.3475 6.92173L9.99746 11.2717L5.65079 6.92173C5.57007 6.8409 5.4742 6.77677 5.36867 6.73302C5.26315 6.68927 5.15003 6.66675 5.03579 6.66675C4.92156 6.66675 4.80844 6.68927 4.70291 6.73302C4.59739 6.77677 4.50152 6.8409 4.42079 6.92173Z" fill="white"/>
</svg>
