<svg width="24" height="24" viewBox="0 0 24 24" fill="none" xmlns="http://www.w3.org/2000/svg">
<path d="M12.384 20.16C7.89597 20.16 4.27197 16.512 4.27197 12.048C4.27197 7.56004 7.91997 3.93604 12.384 3.93604C16.848 3.93604 20.496 7.58404 20.496 12.048C20.496 16.512 16.872 20.16 12.384 20.16ZM12.384 4.80004C8.39997 4.80004 5.13597 8.04003 5.13597 12.024C5.13597 16.008 8.37597 19.272 12.384 19.272C16.392 19.272 19.632 16.032 19.632 12.024C19.632 8.04003 16.368 4.80004 12.384 4.80004Z" fill="black"/>
<path d="M15.2639 15.3359C15.1439 15.3359 15.0479 15.2879 14.9519 15.2159L12.0719 12.3359C11.9999 12.2639 11.9519 12.1439 11.9519 12.0239V6.76794C11.9519 6.52794 12.1439 6.33594 12.3839 6.33594C12.6239 6.33594 12.8159 6.52794 12.8159 6.76794V11.8559L15.5519 14.5919C15.7199 14.7599 15.7199 15.0479 15.5519 15.2159C15.4799 15.2879 15.3599 15.3359 15.2639 15.3359Z" fill="black"/>
</svg>
