<svg xmlns="http://www.w3.org/2000/svg" viewBox="0 0 24 24" fill="none" stroke="#0F1F3D" stroke-width="1.5" stroke-linecap="round" stroke-linejoin="round">
  <path d="M12 10a2 2 0 0 0-2 2c0 1.02-.1 2.51-.26 4"/>
  <path d="M14 13.12c0 2.38 0 6.38-1 8.88"/>
  <path d="M17.29 21.02c.12-.6.43-2.3.5-3.02"/>
  <path d="M2 12a10 10 0 0 1 18-6"/>
  <path d="M2 17c2.84 0 5.5-1.03 7.5-2.72"/>
  <path d="M5 16.13C5.97 14.8 6.5 13.18 6.5 12a5.5 5.5 0 0 1 8.13-4.83"/>
  <path d="M17.5 12c0 1.03-.12 2.06-.34 3.05"/>
  <path d="M20 10.42A9.97 9.97 0 0 1 22 17"/>
  <path d="M9.5 12a2.5 2.5 0 0 1 5 0c0 1.65-.32 3.7-.5 4.5"/>
</svg>