<svg width="64" height="64" viewBox="0 0 64 64" fill="none" xmlns="http://www.w3.org/2000/svg">
<path d="M38.0625 33.6675L32.0325 44.1125L32 44.1675L21.2713 62.75C21.2174 62.8435 21.1402 62.9214 21.0471 62.9762C20.9541 63.031 20.8485 63.0607 20.7406 63.0624C20.6327 63.0642 20.5261 63.038 20.4314 62.9863C20.3367 62.9346 20.2569 62.8592 20.2 62.7675L16.7388 57.1912C16.6846 57.1036 16.6095 57.0308 16.5203 56.9793C16.4311 56.9278 16.3305 56.8993 16.2275 56.8962L9.66876 56.6875C9.56076 56.6841 9.45549 56.6527 9.36323 56.5964C9.27096 56.5402 9.19486 56.461 9.14235 56.3665C9.08984 56.2721 9.06272 56.1656 9.06362 56.0576C9.06453 55.9495 9.09343 55.8435 9.14751 55.75L18.5325 39.4937L25.9375 26.6675L38.0625 33.6675Z" fill="#FFE64E"/>
<path d="M54.3312 56.6875L47.7725 56.8962C47.6695 56.8993 47.5689 56.9278 47.4797 56.9793C47.3905 57.0308 47.3154 57.1036 47.2612 57.1912L43.8 62.7675C43.7431 62.8592 43.6634 62.9346 43.5686 62.9863C43.4739 63.038 43.3673 63.0642 43.2594 63.0624C43.1515 63.0607 43.0459 63.031 42.9529 62.9762C42.8599 62.9214 42.7826 62.8435 42.7287 62.75L32 44.1675L31.9675 44.1125L25.9375 33.6675L38.0625 26.6675L45.4675 39.4937L54.8525 55.75C54.9066 55.8435 54.9355 55.9495 54.9364 56.0576C54.9373 56.1656 54.9102 56.2721 54.8577 56.3665C54.8052 56.461 54.729 56.5402 54.6368 56.5964C54.5445 56.6527 54.4393 56.6841 54.3312 56.6875Z" fill="#FFE64E"/>
<path d="M54.3783 22.3583C54.3783 24.6375 51.5786 26.4464 50.9108 28.503C50.2187 30.6345 51.3966 33.7391 50.1053 35.5133C48.8012 37.3053 45.476 37.1381 43.684 38.4423C41.9097 39.7335 41.0485 42.9548 38.9168 43.6469C36.8602 44.3146 34.2793 42.2366 32 42.2366C29.7207 42.2366 27.1397 44.3146 25.0831 43.6469C22.9516 42.9548 22.0902 39.7334 20.316 38.4423C18.524 37.1381 15.1987 37.3053 13.8947 35.5133C12.6035 33.7391 13.7812 30.6345 13.0891 28.5031C12.4213 26.4464 9.62158 24.6375 9.62158 22.3581C9.62158 20.079 12.4213 18.27 13.0891 16.2134C13.7812 14.0819 12.6033 10.9774 13.8946 9.20314C15.1987 7.41114 18.524 7.57839 20.316 6.27426C22.0902 4.98301 22.9515 1.76176 25.0831 1.06964C27.1397 0.401762 29.7206 2.47976 32 2.47976C34.2792 2.47976 36.8602 0.401762 38.9168 1.06951C41.0483 1.76164 41.9097 4.98301 43.684 6.27426C45.476 7.57839 48.8012 7.41114 50.1052 9.20301C51.3965 10.9774 50.2187 14.0818 50.9108 16.2134C51.5786 18.27 54.3783 20.0789 54.3783 22.3583Z" fill="#FFCD85"/>
<path d="M45.4675 39.4937C44.805 39.7037 44.185 39.9525 43.6837 40.3175C41.91 41.6087 41.0487 44.83 38.9175 45.5225C36.87 46.1862 34.3037 44.1312 32.0325 44.1125C32.0108 44.1108 31.9891 44.1108 31.9675 44.1125C29.6962 44.1312 27.13 46.1862 25.0837 45.5225C22.9512 44.83 22.09 41.6087 20.3162 40.3175C19.815 39.9525 19.195 39.7037 18.5325 39.4937L25.9375 26.6675L32 30.1675L38.0625 26.6675L45.4675 39.4937Z" fill="#FFD815"/>
<path d="M54.3783 22.3583C54.3783 24.6375 51.5786 26.4464 50.9108 28.503C50.2187 30.6345 51.3966 33.7391 50.1053 35.5133C48.8012 37.3053 45.476 37.1381 43.684 38.4423C41.9097 39.7335 41.0485 42.9548 38.9168 43.6469C36.8602 44.3146 34.2793 42.2366 32 42.2366C29.7207 42.2366 27.1397 44.3146 25.0831 43.6469C22.9516 42.9548 22.0902 39.7334 20.316 38.4423C18.524 37.1381 15.1987 37.3053 13.8947 35.5133C12.6035 33.7391 13.7812 30.6345 13.0891 28.5031C12.4213 26.4464 9.62158 24.6375 9.62158 22.3581C9.62158 20.079 12.4213 18.27 13.0891 16.2134C13.7812 14.0819 12.6033 10.9774 13.8946 9.20314C15.1987 7.41114 18.524 7.57839 20.316 6.27426C22.0902 4.98301 22.9515 1.76176 25.0831 1.06964C27.1397 0.401762 29.7206 2.47976 32 2.47976C34.2792 2.47976 36.8602 0.401762 38.9168 1.06951C41.0483 1.76164 41.9097 4.98301 43.684 6.27426C45.476 7.57839 48.8012 7.41114 50.1052 9.20301C51.3965 10.9774 50.2187 14.0818 50.9108 16.2134C51.5786 18.27 54.3783 20.0789 54.3783 22.3583Z" fill="#FF6666"/>
<path d="M39.8086 29.9397H26.9071C26.6491 29.9398 26.3969 29.8628 26.1829 29.7186C25.9688 29.5744 25.8027 29.3696 25.7058 29.1305L22.145 20.3472L28.8824 23.9247C28.9588 23.9653 29.0425 23.9902 29.1286 23.9979C29.2147 24.0056 29.3015 23.996 29.3839 23.9696C29.4662 23.9433 29.5425 23.9007 29.6081 23.8444C29.6738 23.7882 29.7275 23.7193 29.7661 23.642L33.3579 16.4585L36.9496 23.642C36.9883 23.7193 37.042 23.7882 37.1077 23.8444C37.1734 23.9007 37.2496 23.9432 37.332 23.9695C37.4143 23.9959 37.5011 24.0055 37.5872 23.9978C37.6733 23.99 37.757 23.9652 37.8334 23.9246L44.5706 20.3472L41.0099 29.1305C40.913 29.3696 40.7468 29.5744 40.5328 29.7186C40.3188 29.8627 40.0667 29.9397 39.8086 29.9397Z" fill="#FF4E4E"/>
<path d="M33.4159 16.4373C34.6585 16.4373 35.6659 15.4299 35.6659 14.1873C35.6659 12.9446 34.6585 11.9373 33.4159 11.9373C32.1733 11.9373 31.1659 12.9446 31.1659 14.1873C31.1659 15.4299 32.1733 16.4373 33.4159 16.4373Z" fill="#FF4E4E"/>
<path d="M45.9784 20.9373C47.0484 20.9373 47.9159 20.0698 47.9159 18.9998C47.9159 17.9297 47.0484 17.0623 45.9784 17.0623C44.9083 17.0623 44.0409 17.9297 44.0409 18.9998C44.0409 20.0698 44.9083 20.9373 45.9784 20.9373Z" fill="#FF4E4E"/>
<path d="M20.7284 20.9373C21.7984 20.9373 22.6659 20.0698 22.6659 18.9998C22.6659 17.9297 21.7984 17.0623 20.7284 17.0623C19.6583 17.0623 18.7909 17.9297 18.7909 18.9998C18.7909 20.0698 19.6583 20.9373 20.7284 20.9373Z" fill="#FF4E4E"/>
<path d="M38.4551 29.9397H25.5537C25.2957 29.9397 25.0436 29.8627 24.8295 29.7186C24.6155 29.5744 24.4494 29.3696 24.3525 29.1305L20.7917 20.3472L27.529 23.9247C27.6054 23.9653 27.6891 23.9902 27.7752 23.9979C27.8613 24.0056 27.9481 23.996 28.0305 23.9696C28.1128 23.9433 28.1891 23.9007 28.2547 23.8444C28.3204 23.7882 28.3741 23.7193 28.4127 23.642L32.0045 16.4585L35.5964 23.642C35.635 23.7193 35.6888 23.7881 35.7544 23.8444C35.8201 23.9006 35.8963 23.9431 35.9786 23.9695C36.061 23.9958 36.1477 24.0054 36.2339 23.9977C36.32 23.99 36.4036 23.9652 36.48 23.9246L43.2174 20.3472L39.6566 29.1305C39.5597 29.3696 39.3936 29.5744 39.1796 29.7186C38.9656 29.8627 38.7134 29.9397 38.4554 29.9397H38.4551Z" fill="#FFE64E"/>
<path d="M33.7213 23.642C33.7599 23.7193 33.8136 23.7881 33.8793 23.8444C33.9449 23.9006 34.0212 23.9431 34.1035 23.9695C34.1859 23.9958 34.2726 24.0054 34.3587 23.9977C34.4448 23.99 34.5285 23.9652 34.6049 23.9246L35.4999 23.4494L32.0044 16.4585L31.0669 18.3335L33.7213 23.642ZM40.8279 21.616L37.7815 29.1305C37.6846 29.3696 37.5185 29.5744 37.3044 29.7186C37.0904 29.8627 36.8383 29.9397 36.5803 29.9397H38.4553C38.7133 29.9397 38.9654 29.8627 39.1794 29.7186C39.3935 29.5744 39.5596 29.3696 39.6565 29.1305L43.2173 20.3472L40.8279 21.616ZM25.6539 23.9247C25.7302 23.9653 25.814 23.9902 25.9001 23.9979C25.9862 24.0056 26.073 23.996 26.1553 23.9696C26.2377 23.9433 26.3139 23.9007 26.3796 23.8444C26.4453 23.7882 26.499 23.7193 26.5376 23.642L26.6339 23.4495L20.7916 20.3472L21.3059 21.616L25.6539 23.9247Z" fill="#FFDF1F"/>
<path d="M40.3963 34.7661H25.7482C25.4995 34.7661 25.2611 34.6673 25.0853 34.4915C24.9094 34.3157 24.8107 34.0773 24.8107 33.8286C24.8107 33.58 24.9094 33.3415 25.0853 33.1657C25.2611 32.9899 25.4995 32.8911 25.7482 32.8911H40.396C40.6447 32.8911 40.8831 32.9899 41.059 33.1657C41.2348 33.3415 41.3335 33.58 41.3335 33.8286C41.3335 34.0773 41.2348 34.3157 41.059 34.4915C40.8831 34.6673 40.6447 34.7661 40.396 34.7661H40.3963Z" fill="#FF4E4E"/>
<path d="M39.3284 34.7661H24.6804C24.4318 34.7661 24.1933 34.6673 24.0175 34.4915C23.8417 34.3157 23.7429 34.0773 23.7429 33.8286C23.7429 33.58 23.8417 33.3415 24.0175 33.1657C24.1933 32.9899 24.4318 32.8911 24.6804 32.8911H39.3284C39.5771 32.8911 39.8155 32.9899 39.9913 33.1657C40.1671 33.3415 40.2659 33.58 40.2659 33.8286C40.2659 34.0773 40.1671 34.3157 39.9913 34.4915C39.8155 34.6673 39.5771 34.7661 39.3284 34.7661Z" fill="#FFE64E"/>
<path d="M32.0625 16.4373C33.3051 16.4373 34.3125 15.4299 34.3125 14.1873C34.3125 12.9446 33.3051 11.9373 32.0625 11.9373C30.8199 11.9373 29.8125 12.9446 29.8125 14.1873C29.8125 15.4299 30.8199 16.4373 32.0625 16.4373Z" fill="#FFE64E"/>
<path d="M32.0625 11.9374C31.8158 11.9377 31.5709 11.9788 31.3375 12.0589C31.7822 12.2099 32.1684 12.4964 32.4419 12.8781C32.7154 13.2598 32.8625 13.7176 32.8625 14.1873C32.8625 14.6569 32.7154 15.1147 32.4419 15.4964C32.1684 15.8781 31.7822 16.1646 31.3375 16.3156C31.6466 16.421 31.9749 16.4579 32.2997 16.4236C32.6245 16.3893 32.9379 16.2847 33.2181 16.1171C33.4984 15.9494 33.7388 15.7228 33.9226 15.4529C34.1065 15.183 34.2293 14.8763 34.2827 14.5541C34.336 14.2319 34.3186 13.902 34.2315 13.5872C34.1445 13.2725 33.99 12.9804 33.7787 12.7314C33.5675 12.4824 33.3045 12.2824 33.0081 12.1452C32.7118 12.0081 32.3891 11.9372 32.0625 11.9374Z" fill="#FFDF1F"/>
<path d="M44.625 20.9373C45.6951 20.9373 46.5625 20.0698 46.5625 18.9998C46.5625 17.9297 45.6951 17.0623 44.625 17.0623C43.5549 17.0623 42.6875 17.9297 42.6875 18.9998C42.6875 20.0698 43.5549 20.9373 44.625 20.9373Z" fill="#FFE64E"/>
<path d="M44.625 17.0624C44.4037 17.0628 44.1841 17.1013 43.9758 17.1761C44.3526 17.3098 44.6788 17.5569 44.9095 17.8834C45.1402 18.21 45.264 18.6 45.264 18.9998C45.264 19.3996 45.1402 19.7896 44.9095 20.1162C44.6788 20.4428 44.3526 20.6899 43.9758 20.8235C44.2417 20.9182 44.5251 20.9536 44.8062 20.9273C45.0872 20.901 45.3591 20.8136 45.6028 20.6711C45.8465 20.5287 46.0562 20.3347 46.217 20.1028C46.3779 19.8709 46.4861 19.6065 46.5341 19.3284C46.5821 19.0502 46.5688 18.7649 46.4949 18.4925C46.4211 18.22 46.2886 17.967 46.1068 17.7511C45.9249 17.5353 45.698 17.3618 45.4421 17.2428C45.1861 17.1238 44.9072 17.0622 44.625 17.0623V17.0624Z" fill="#FFDF1F"/>
<path d="M19.375 20.9373C20.4451 20.9373 21.3125 20.0698 21.3125 18.9998C21.3125 17.9297 20.4451 17.0623 19.375 17.0623C18.3049 17.0623 17.4375 17.9297 17.4375 18.9998C17.4375 20.0698 18.3049 20.9373 19.375 20.9373Z" fill="#FFE64E"/>
<path d="M19.375 17.0625C19.155 17.0629 18.9367 17.101 18.7295 17.175C19.1072 17.3081 19.4343 17.5551 19.6657 17.882C19.8971 18.2089 20.0214 18.5995 20.0214 19C20.0214 19.4005 19.8971 19.7911 19.6657 20.118C19.4343 20.4449 19.1072 20.6919 18.7295 20.825C18.9954 20.9191 19.2787 20.954 19.5596 20.9273C19.8404 20.9005 20.112 20.8127 20.3554 20.67C20.5988 20.5273 20.808 20.3331 20.9685 20.1011C21.129 19.8691 21.2369 19.6048 21.2846 19.3267C21.3323 19.0487 21.3187 18.7636 21.2447 18.4913C21.1707 18.2191 21.0381 17.9663 20.8563 17.7506C20.6744 17.535 20.4476 17.3616 20.1917 17.2428C19.9358 17.1239 19.6571 17.0624 19.375 17.0625Z" fill="#FFDF1F"/>
</svg>
