<svg width="20" height="20" viewBox="0 0 20 20" fill="none" xmlns="http://www.w3.org/2000/svg">
<g clip-path="url(#clip0_2_1161)">
<path d="M2.41666 9.99992C2.41666 9.5857 2.08087 9.24992 1.66666 9.24992C1.25244 9.24992 0.916656 9.5857 0.916656 9.99992H1.66666H2.41666ZM4.99918 3.33325L5.44968 3.93287H5.44968L4.99918 3.33325ZM3.33332 4.99911L3.88815 5.50375L3.91182 5.47773L3.93294 5.44961L3.33332 4.99911ZM3.4689 0.836598C3.47074 0.422389 3.13646 0.0851074 2.72225 0.0832594C2.30804 0.0814114 1.97076 0.415696 1.96891 0.829906L2.7189 0.833252L3.4689 0.836598ZM2.71152 2.48801L1.96153 2.48467V2.48467L2.71152 2.48801ZM5.77819 5.55468L5.78153 6.30467H5.78153L5.77819 5.55468ZM7.43629 6.29729C7.8505 6.29544 8.18479 5.95816 8.18294 5.54395C8.18109 5.12974 7.84381 4.79546 7.4296 4.7973L7.43295 5.5473L7.43629 6.29729ZM3.05198 4.91881L2.45885 5.37783L2.45885 5.37783L3.05198 4.91881ZM3.34739 5.21422L2.88837 5.80735L2.88837 5.80735L3.34739 5.21422ZM1.66666 9.99992H0.916656C0.916656 15.0165 4.9834 19.0833 9.99999 19.0833V18.3333V17.5833C5.81183 17.5833 2.41666 14.1881 2.41666 9.99992H1.66666ZM9.99999 18.3333V19.0833C15.0166 19.0833 19.0833 15.0165 19.0833 9.99992H18.3333H17.5833C17.5833 14.1881 14.1881 17.5833 9.99999 17.5833V18.3333ZM18.3333 9.99992H19.0833C19.0833 4.98333 15.0166 0.916585 9.99999 0.916585V1.66659V2.41659C14.1881 2.41659 17.5833 5.81176 17.5833 9.99992H18.3333ZM9.99999 1.66659V0.916585C7.9556 0.916585 6.06701 1.59288 4.54867 2.73363L4.99918 3.33325L5.44968 3.93287C6.71716 2.98059 8.29163 2.41659 9.99999 2.41659V1.66659ZM4.99918 3.33325L4.54867 2.73363C3.86148 3.24993 3.25 3.86141 2.7337 4.5486L3.33332 4.99911L3.93294 5.44961C4.36437 4.87538 4.87545 4.3643 5.44968 3.93287L4.99918 3.33325ZM2.7189 0.833252L1.96891 0.829906L1.96153 2.48467L2.71152 2.48801L3.46151 2.49136L3.4689 0.836598L2.7189 0.833252ZM5.77819 5.55468L5.78153 6.30467L7.43629 6.29729L7.43295 5.5473L7.4296 4.7973L5.77484 4.80469L5.77819 5.55468ZM2.71152 2.48801L1.96153 2.48467C1.95866 3.12685 1.95509 3.67187 2.00299 4.11044C2.05253 4.56411 2.16481 4.99788 2.45885 5.37783L3.05198 4.91881L3.6451 4.45979C3.58986 4.3884 3.52896 4.26659 3.49412 3.9476C3.45764 3.61353 3.45849 3.16881 3.46151 2.49136L2.71152 2.48801ZM5.77819 5.55468L5.77484 4.80469C5.09739 4.80771 4.65267 4.80856 4.3186 4.77207C3.99961 4.73724 3.8778 4.67634 3.80641 4.62109L3.34739 5.21422L2.88837 5.80735C3.26832 6.10139 3.70209 6.21367 4.15576 6.26321C4.59433 6.3111 5.13935 6.30754 5.78153 6.30467L5.77819 5.55468ZM3.05198 4.91881L2.45885 5.37783C2.53716 5.47902 2.62335 5.57369 2.71657 5.66099L3.22923 5.11356L3.74189 4.56613C3.70689 4.53335 3.67452 4.4978 3.6451 4.45979L3.05198 4.91881ZM3.22923 5.11356L2.71657 5.66099C2.77146 5.71239 2.82879 5.76124 2.88837 5.80735L3.34739 5.21422L3.80641 4.6211C3.78403 4.60377 3.7625 4.58543 3.74189 4.56613L3.22923 5.11356ZM3.33332 4.99911L2.77849 4.49446L2.6744 4.60891L3.22923 5.11356L3.78406 5.6182L3.88815 5.50375L3.33332 4.99911Z" fill="#2D264B"/>
</g>
<defs>
<clipPath id="clip0_2_1161">
<rect width="20" height="20" fill="white"/>
</clipPath>
</defs>
</svg>
