<svg width="42" height="42" viewBox="0 0 42 42" fill="none" xmlns="http://www.w3.org/2000/svg">
<g clip-path="url(#clip0_2_4976)">
<path d="M29.3631 28.7954L28.4632 29.6346L25.7923 26.7709L24.844 25.7537L25.7439 24.9146L26.6921 25.9317L29.3631 28.7954Z" fill="#78909C"/>
<path d="M26.6921 25.9318C26.5486 26.077 26.4009 26.2198 26.2508 26.36C26.1007 26.5003 25.9473 26.6381 25.7923 26.7702L24.844 25.753L25.7463 24.9138L26.6921 25.9318ZM29.5075 28.9301C29.3639 29.0753 29.2162 29.218 29.0661 29.3583C28.916 29.4985 28.7626 29.6364 28.6076 29.7684L27.6593 28.7512L28.5616 27.9121L29.5075 28.9301Z" fill="#465E66"/>
<path d="M30.4262 15.439C30.3219 18.374 29.3502 21.2122 27.6337 23.5953C25.9173 25.9783 23.5331 27.7992 20.7824 28.828C18.0317 29.8569 15.0378 30.0474 12.1788 29.3757C9.3198 28.704 6.72401 27.2001 4.71926 25.0539C2.03259 22.1728 0.600287 18.3425 0.737352 14.4054C0.874418 10.4684 2.56963 6.74698 5.45016 4.05966C11.4384 -1.52667 20.8573 -1.19936 26.4436 4.79056C27.7786 6.21393 28.8181 7.88799 29.5017 9.71582C30.1853 11.5436 30.4995 13.4889 30.4262 15.439Z" fill="#546E7A"/>
<path d="M27.6519 15.348C27.5433 18.4745 26.2256 21.4368 23.9763 23.6111C21.727 25.7855 18.7217 27.002 15.5933 27.0046C15.4506 27.0046 15.307 27.0021 15.1627 26.9972C14.4126 26.9714 13.6666 26.8767 12.9339 26.7142C11.5388 26.4041 10.2108 25.8462 9.01277 25.067C8.18483 24.5273 7.42565 23.8887 6.75199 23.1655C4.59234 20.8191 3.44845 17.7137 3.56993 14.527C3.69142 11.3403 5.06843 8.33098 7.40046 6.15578C9.73249 3.98058 12.8302 2.81608 16.0177 2.91638C19.2051 3.01669 22.2235 4.37367 24.4141 6.69119C24.897 7.20848 25.3339 7.76675 25.7201 8.35971C26.5001 9.55665 27.0588 10.8839 27.3697 12.2783C27.5938 13.2854 27.6887 14.3169 27.6519 15.348Z" fill="#90CAF9"/>
<path d="M19.5768 8.46245C17.625 7.35471 15.3132 7.06737 13.1497 7.6636C10.9861 8.25982 9.14786 9.69081 8.03906 11.642" stroke="white" stroke-width="15" stroke-linecap="round" stroke-linejoin="round"/>
<path d="M40.4595 41.2272C39.9516 41.7027 39.2816 41.9668 38.5859 41.9655H38.4882C38.1281 41.9542 37.7738 41.8716 37.4458 41.7227C37.1178 41.5737 36.8224 41.3613 36.5769 41.0976L26.4723 30.6509L30.4918 26.8997L40.5948 37.3406C41.0911 37.8745 41.3555 38.5834 41.3302 39.3119C41.3048 40.0404 40.9917 40.7291 40.4595 41.2272Z" fill="#5E35B1"/>
<path d="M40.8171 40.8205C40.5631 41.1753 40.2282 41.4646 39.8402 41.6643C39.4522 41.864 39.0222 41.9684 38.5859 41.9689H38.4882C38.1279 41.9571 37.7735 41.8741 37.4454 41.7246C37.1174 41.575 36.8222 41.362 36.5769 41.0977L26.4723 30.6511L27.1236 30.0432L37.2069 40.4661C37.4524 40.7299 37.7477 40.9425 38.0757 41.0916C38.4038 41.2407 38.7581 41.3234 39.1182 41.3348H39.2159C39.7904 41.3362 40.3508 41.1562 40.8171 40.8205Z" fill="#4A2A96"/>
<path d="M30.4352 28.1367L39.95 37.6515" stroke="white" stroke-width="3" stroke-linecap="round" stroke-linejoin="round"/>
<path d="M25.0901 6.06038C22.7328 3.56059 19.4819 2.09556 16.0478 1.98545C12.6136 1.87533 9.27554 3.1291 6.76301 5.47275C4.25049 7.81639 2.76785 11.0593 2.63913 14.4928C2.5104 17.9263 3.74606 21.2712 6.07605 23.7964C7.23763 25.0484 8.636 26.0576 10.1902 26.7656C11.7444 27.4736 13.4237 27.8662 15.1307 27.9209C15.2857 27.9266 15.4399 27.9291 15.5941 27.9291C18.126 27.9268 20.6021 27.1853 22.7184 25.7957C24.8348 24.406 26.4994 22.4286 27.5078 20.1063C28.5162 17.7839 28.8246 15.2176 28.3951 12.7225C27.9656 10.2274 26.8169 7.9119 25.0901 6.06038ZM27.6519 15.348C27.5433 18.4745 26.2256 21.4368 23.9763 23.6112C21.727 25.7855 18.7217 27.002 15.5933 27.0046C15.4506 27.0046 15.307 27.0021 15.1627 26.9972C12.7765 26.9124 10.469 26.1223 8.53166 24.7268C6.59428 23.3313 5.1139 21.393 4.27749 19.1566C3.44107 16.9203 3.28614 14.4862 3.83227 12.1619C4.3784 9.83753 5.60108 7.72716 7.34589 6.09729C9.09241 4.46796 11.2829 3.39316 13.6403 3.00882C15.9977 2.62448 18.4161 2.94786 20.5897 3.93807C22.7633 4.92828 24.5944 6.54083 25.8515 8.57179C27.1086 10.6028 27.7351 12.9609 27.6519 15.348Z" fill="#546E7A"/>
<path d="M25.0901 6.06038C22.7328 3.56059 19.4819 2.09556 16.0478 1.98545C12.6136 1.87533 9.27554 3.1291 6.76301 5.47275C4.25049 7.81639 2.76785 11.0593 2.63913 14.4928C2.5104 17.9263 3.74606 21.2712 6.07605 23.7964C7.23763 25.0484 8.636 26.0576 10.1902 26.7656C11.7444 27.4736 13.4237 27.8662 15.1307 27.9209C15.2857 27.9266 15.4399 27.9291 15.5941 27.9291C18.126 27.9268 20.6021 27.1853 22.7184 25.7957C24.8348 24.406 26.4994 22.4286 27.5078 20.1063C28.5162 17.7839 28.8246 15.2176 28.3951 12.7225C27.9656 10.2274 26.8169 7.9119 25.0901 6.06038ZM27.6519 15.348C27.5433 18.4745 26.2256 21.4368 23.9763 23.6112C21.727 25.7855 18.7217 27.002 15.5933 27.0046C15.4506 27.0046 15.307 27.0021 15.1627 26.9972C12.7765 26.9124 10.469 26.1223 8.53166 24.7268C6.59428 23.3313 5.1139 21.393 4.27749 19.1566C3.44107 16.9203 3.28614 14.4862 3.83227 12.1619C4.3784 9.83753 5.60108 7.72716 7.34589 6.09729C9.09241 4.46796 11.2829 3.39316 13.6403 3.00882C15.9977 2.62448 18.4161 2.94786 20.5897 3.93807C22.7633 4.92828 24.5944 6.54083 25.8515 8.57179C27.1086 10.6028 27.7351 12.9609 27.6519 15.348Z" fill="#465E66"/>
</g>
<defs>
<clipPath id="clip0_2_4976">
<rect width="42" height="42" fill="white"/>
</clipPath>
</defs>
</svg>
