<svg width="20" height="20" viewBox="0 0 20 20" fill="none" xmlns="http://www.w3.org/2000/svg">
<path d="M4.21756 17.5375L4.6584 16.9308L4.21756 17.5375ZM3.29576 16.6157L3.90253 16.1749L3.29576 16.6157ZM16.7042 16.6157L16.0975 16.1749L16.7042 16.6157ZM15.7824 17.5375L16.2233 18.1443L15.7824 17.5375ZM15.7824 4.12906L16.2233 3.52229L15.7824 4.12906ZM16.7042 5.05085L16.0975 5.49169L16.7042 5.05085ZM4.21756 4.12906L4.6584 4.73582V4.73582L4.21756 4.12906ZM3.29576 5.05085L3.90253 5.49169L3.29576 5.05085ZM16.0149 13.3846L15.8975 12.6438V12.6438L16.0149 13.3846ZM12.5513 16.8481L11.8105 16.7308V16.7308L12.5513 16.8481ZM11.75 4.16663C11.75 4.58084 12.0858 4.91663 12.5 4.91663C12.9142 4.91663 13.25 4.58084 13.25 4.16663H12.5H11.75ZM13.25 1.66663C13.25 1.25241 12.9142 0.916626 12.5 0.916626C12.0858 0.916626 11.75 1.25241 11.75 1.66663H12.5H13.25ZM6.75 4.16663C6.75 4.58084 7.08579 4.91663 7.5 4.91663C7.91421 4.91663 8.25 4.58084 8.25 4.16663H7.5H6.75ZM8.25 1.66663C8.25 1.25241 7.91421 0.916626 7.5 0.916626C7.08579 0.916626 6.75 1.25241 6.75 1.66663H7.5H8.25ZM17.4759 13.3333L18.2255 13.359L17.4759 13.3333ZM12.5 18.3092L12.5257 19.0587L12.5 18.3092ZM10 18.3333V17.5833C8.42091 17.5833 7.29683 17.5823 6.4285 17.4882C5.57421 17.3956 5.05688 17.2203 4.6584 16.9308L4.21756 17.5375L3.77672 18.1443C4.47352 18.6505 5.28502 18.8731 6.26693 18.9795C7.23481 19.0843 8.45432 19.0833 10 19.0833V18.3333ZM2.5 10.8333H1.75C1.75 12.379 1.74897 13.5985 1.85383 14.5664C1.96022 15.5483 2.18275 16.3598 2.689 17.0566L3.29576 16.6157L3.90253 16.1749C3.61301 15.7764 3.43766 15.2591 3.34511 14.4048C3.25103 13.5365 3.25 12.4124 3.25 10.8333H2.5ZM4.21756 17.5375L4.6584 16.9308C4.36834 16.72 4.11326 16.4649 3.90253 16.1749L3.29576 16.6157L2.689 17.0566C2.99226 17.474 3.35932 17.841 3.77672 18.1443L4.21756 17.5375ZM16.7042 16.6157L16.0975 16.1749C15.8867 16.4649 15.6317 16.72 15.3416 16.9308L15.7824 17.5375L16.2233 18.1443C16.6407 17.841 17.0077 17.474 17.311 17.0566L16.7042 16.6157ZM17.5 10.8333H18.25C18.25 9.28761 18.251 8.0681 18.1462 7.10022C18.0398 6.11831 17.8173 5.30681 17.311 4.61002L16.7042 5.05085L16.0975 5.49169C16.387 5.89017 16.5623 6.4075 16.6549 7.26179C16.749 8.13012 16.75 9.2542 16.75 10.8333H17.5ZM15.7824 4.12906L15.3416 4.73582C15.6317 4.94656 15.8867 5.20164 16.0975 5.49169L16.7042 5.05085L17.311 4.61002C17.0077 4.19262 16.6407 3.82555 16.2233 3.52229L15.7824 4.12906ZM2.5 10.8333H3.25C3.25 9.2542 3.25103 8.13012 3.34511 7.26179C3.43766 6.4075 3.61301 5.89017 3.90253 5.49169L3.29576 5.05085L2.689 4.61002C2.18275 5.30681 1.96022 6.11831 1.85383 7.10022C1.74897 8.0681 1.75 9.28761 1.75 10.8333H2.5ZM4.21756 4.12906L3.77672 3.52229C3.35932 3.82555 2.99226 4.19262 2.689 4.61002L3.29576 5.05085L3.90253 5.49169C4.11326 5.20164 4.36834 4.94656 4.6584 4.73582L4.21756 4.12906ZM16.0149 13.3846L15.8975 12.6438C13.7937 12.977 12.1437 14.627 11.8105 16.7308L12.5513 16.8481L13.2921 16.9655C13.5236 15.5035 14.6702 14.3569 16.1322 14.1254L16.0149 13.3846ZM7.5 4.16663H8.25V3.3574H7.5H6.75V4.16663H7.5ZM7.5 3.3574H8.25V1.66663H7.5H6.75V3.3574H7.5ZM10 3.33329V2.58329C9.03005 2.58329 8.19352 2.5832 7.47432 2.60784L7.5 3.3574L7.52568 4.10696C8.21372 4.08339 9.02174 4.08329 10 4.08329V3.33329ZM7.5 3.3574L7.47432 2.60784C5.91157 2.66138 4.72962 2.82998 3.77672 3.52229L4.21756 4.12906L4.6584 4.73582C5.21318 4.33275 5.98145 4.15987 7.52568 4.10696L7.5 3.3574ZM12.5 4.16663H13.25V3.3574H12.5H11.75V4.16663H12.5ZM12.5 3.3574H13.25V1.66663H12.5H11.75V3.3574H12.5ZM10 3.33329V4.08329C10.9783 4.08329 11.7863 4.08339 12.4743 4.10696L12.5 3.3574L12.5257 2.60784C11.8065 2.5832 10.97 2.58329 10 2.58329V3.33329ZM12.5 3.3574L12.4743 4.10696C14.0185 4.15987 14.7868 4.33275 15.3416 4.73582L15.7824 4.12906L16.2233 3.52229C15.2704 2.82998 14.0884 2.66138 12.5257 2.60784L12.5 3.3574ZM17.4759 13.3333L17.4759 12.5833C16.7452 12.5833 16.2908 12.5815 15.8975 12.6438L16.0149 13.3846L16.1322 14.1254C16.3799 14.0861 16.6903 14.0833 17.4759 14.0833L17.4759 13.3333ZM17.5 10.8333H16.75C16.75 11.8116 16.7499 12.6196 16.7263 13.3076L17.4759 13.3333L18.2255 13.359C18.2501 12.6398 18.25 11.8032 18.25 10.8333H17.5ZM17.4759 13.3333L16.7263 13.3076C16.6734 14.8518 16.5005 15.6201 16.0975 16.1749L16.7042 16.6157L17.311 17.0566C18.0033 16.1037 18.1719 14.9217 18.2255 13.359L17.4759 13.3333ZM12.5 18.3092L13.25 18.3092C13.25 17.5236 13.2528 17.2132 13.2921 16.9655L12.5513 16.8481L11.8105 16.7308C11.7482 17.1241 11.75 17.5785 11.75 18.3092L12.5 18.3092ZM10 18.3333V19.0833C10.97 19.0833 11.8065 19.0834 12.5257 19.0587L12.5 18.3092L12.4743 17.5596C11.7863 17.5832 10.9783 17.5833 10 17.5833V18.3333ZM12.5 18.3092L12.5257 19.0587C14.0884 19.0052 15.2704 18.8366 16.2233 18.1443L15.7824 17.5375L15.3416 16.9308C14.7868 17.3338 14.0185 17.5067 12.4743 17.5596L12.5 18.3092Z" fill="#0B3C5D"/>
<path d="M6.66667 7.49996C6.66667 7.9602 6.29357 8.33329 5.83333 8.33329C5.3731 8.33329 5 7.9602 5 7.49996C5 7.03972 5.3731 6.66663 5.83333 6.66663C6.29357 6.66663 6.66667 7.03972 6.66667 7.49996Z" fill="#0B3C5D"/>
<path d="M6.66667 10.8333C6.66667 11.2935 6.29357 11.6666 5.83333 11.6666C5.3731 11.6666 5 11.2935 5 10.8333C5 10.3731 5.3731 9.99996 5.83333 9.99996C6.29357 9.99996 6.66667 10.3731 6.66667 10.8333Z" fill="#0B3C5D"/>
<path d="M10.8333 7.49996C10.8333 7.9602 10.4602 8.33329 10 8.33329C9.53976 8.33329 9.16667 7.9602 9.16667 7.49996C9.16667 7.03972 9.53976 6.66663 10 6.66663C10.4602 6.66663 10.8333 7.03972 10.8333 7.49996Z" fill="#0B3C5D"/>
<path d="M10.8333 10.8333C10.8333 11.2935 10.4602 11.6666 10 11.6666C9.53976 11.6666 9.16667 11.2935 9.16667 10.8333C9.16667 10.3731 9.53976 9.99996 10 9.99996C10.4602 9.99996 10.8333 10.3731 10.8333 10.8333Z" fill="#0B3C5D"/>
<path d="M10.8333 14.1666C10.8333 14.6269 10.4602 15 10 15C9.53976 15 9.16667 14.6269 9.16667 14.1666C9.16667 13.7064 9.53976 13.3333 10 13.3333C10.4602 13.3333 10.8333 13.7064 10.8333 14.1666Z" fill="#0B3C5D"/>
<path d="M15 7.49996C15 7.9602 14.6269 8.33329 14.1667 8.33329C13.7064 8.33329 13.3333 7.9602 13.3333 7.49996C13.3333 7.03972 13.7064 6.66663 14.1667 6.66663C14.6269 6.66663 15 7.03972 15 7.49996Z" fill="#0B3C5D"/>
<path d="M15 10.8333C15 11.2935 14.6269 11.6666 14.1667 11.6666C13.7064 11.6666 13.3333 11.2935 13.3333 10.8333C13.3333 10.3731 13.7064 9.99996 14.1667 9.99996C14.6269 9.99996 15 10.3731 15 10.8333Z" fill="#0B3C5D"/>
<path d="M6.66667 14.1666C6.66667 14.6269 6.29357 15 5.83333 15C5.3731 15 5 14.6269 5 14.1666C5 13.7064 5.3731 13.3333 5.83333 13.3333C6.29357 13.3333 6.66667 13.7064 6.66667 14.1666Z" fill="#0B3C5D"/>
</svg>
