<svg width="32" height="32" viewBox="0 0 32 32" fill="none" xmlns="http://www.w3.org/2000/svg">
<path d="M11.0747 24.9266C11.3362 25.1876 11.6906 25.3342 12.06 25.3342C12.4295 25.3342 12.7839 25.1876 13.0454 24.9266L20.9254 17.0546C21.2294 16.7506 21.3654 16.3399 21.328 15.9426C21.328 15.5826 21.1934 15.2239 20.92 14.9506L13.044 7.07458C12.9147 6.94527 12.7612 6.8427 12.5923 6.77272C12.4233 6.70274 12.2423 6.66672 12.0594 6.66672C11.8765 6.66672 11.6954 6.70274 11.5265 6.77272C11.3575 6.8427 11.204 6.94527 11.0747 7.07458C10.9454 7.20389 10.8428 7.3574 10.7729 7.52635C10.7029 7.6953 10.6669 7.87638 10.6669 8.05925C10.6669 8.24212 10.7029 8.4232 10.7729 8.59215C10.8428 8.7611 10.9454 8.91461 11.0747 9.04392L18.0347 16.0039L11.0747 22.9586C10.9454 23.0877 10.8428 23.2411 10.7728 23.41C10.7028 23.5788 10.6667 23.7598 10.6667 23.9426C10.6667 24.1254 10.7028 24.3064 10.7728 24.4752C10.8428 24.644 10.9454 24.7974 11.0747 24.9266Z" fill="black"/>
</svg>
