<svg width="20" height="20" viewBox="0 0 20 20" fill="none" xmlns="http://www.w3.org/2000/svg">
<path d="M4.42085 6.92173C4.25771 7.08515 4.16608 7.30664 4.16608 7.53756C4.16608 7.76848 4.25771 7.98997 4.42085 8.15339L9.34085 13.0784C9.53085 13.2684 9.78752 13.3534 10.0359 13.3301C10.2609 13.3301 10.485 13.2459 10.6559 13.0751L15.5784 8.15256C15.6592 8.07174 15.7233 7.9758 15.767 7.8702C15.8108 7.76461 15.8333 7.65144 15.8333 7.53714C15.8333 7.42285 15.8108 7.30968 15.767 7.20408C15.7233 7.09849 15.6592 7.00254 15.5784 6.92173C15.4975 6.84091 15.4016 6.7768 15.296 6.73306C15.1904 6.68933 15.0772 6.66681 14.9629 6.66681C14.8486 6.66681 14.7355 6.68933 14.6299 6.73306C14.5243 6.7768 14.4283 6.84091 14.3475 6.92173L9.99752 11.2717L5.65085 6.92173C5.57013 6.8409 5.47426 6.77677 5.36874 6.73302C5.26321 6.68927 5.15009 6.66675 5.03585 6.66675C4.92162 6.66675 4.8085 6.68927 4.70297 6.73302C4.59745 6.77677 4.50158 6.8409 4.42085 6.92173Z" fill="black"/>
</svg>
