<svg width="30" height="28" viewBox="0 0 30 28" fill="none" xmlns="http://www.w3.org/2000/svg">
<g clip-path="url(#clip0_2_2151)">
<path d="M6.85465 11.421L0.0020752 24.1472L9.79147 27.0841L11.7494 12.7263L6.85465 11.421Z" fill="#D9DAD9"/>
<path d="M22.1913 12.7263L16.9703 11.421L19.2545 24.1472L29.0439 27.0841L22.1913 12.7263Z" fill="#D9DAD9"/>
<path d="M11.7493 12.7263L9.79144 27.0841L19.2545 24.1472L16.9703 11.421L11.7493 12.7263Z" fill="#BBBDBE"/>
<path d="M20.2335 15.0104C20.2335 15.9893 18.9282 16.6419 16.9703 16.6419C15.3388 16.6419 13.7072 15.9893 13.7072 15.0104C13.7072 14.0314 15.0125 13.3788 16.9703 13.3788C18.6019 13.3788 20.2335 14.0314 20.2335 15.0104Z" fill="#788D98"/>
<path d="M16.9703 0C14.3598 0 12.0756 2.28419 12.0756 4.8947C12.0756 8.81046 16.9703 14.6841 16.9703 14.6841C16.9703 14.6841 21.865 8.81046 21.865 4.8947C21.865 2.28419 19.5808 0 16.9703 0Z" fill="#49B1A1"/>
<path d="M19.2545 4.89467C19.2545 6.19992 18.2756 7.17886 16.9703 7.17886C15.6651 7.17886 14.6862 6.19992 14.6862 4.89467C14.6862 3.58941 15.6651 2.61047 16.9703 2.61047C18.2756 2.61047 19.2545 3.58941 19.2545 4.89467Z" fill="#FEFEFE"/>
</g>
<defs>
<clipPath id="clip0_2_2151">
<rect width="29.046" height="27.084" fill="white"/>
</clipPath>
</defs>
</svg>
