<svg width="29" height="29" viewBox="0 0 29 29" fill="none" xmlns="http://www.w3.org/2000/svg">
<path d="M17.86 23.8047L17.1469 23.2454V23.2454L17.86 23.8047ZM11.1398 23.8047L10.4267 24.3639L11.1398 23.8047ZM14.4999 26.5899V25.6836V26.5899ZM24.1666 11.6104H23.2603C23.2603 13.0924 22.4875 15.0755 21.2711 17.226C20.0748 19.3409 18.5288 21.4833 17.1469 23.2454L17.86 23.8047L18.5732 24.3639C19.9823 22.567 21.5895 20.3446 22.8487 18.1183C24.0879 15.9275 25.0728 13.593 25.0728 11.6104H24.1666ZM11.1398 23.8047L11.8529 23.2454C10.4711 21.4833 8.92501 19.3409 7.72872 17.226C6.51238 15.0755 5.7395 13.0924 5.7395 11.6104H4.83325H3.927C3.927 13.593 4.91192 15.9275 6.15111 18.1183C7.41035 20.3446 9.01756 22.567 10.4267 24.3639L11.1398 23.8047ZM4.83325 11.6104H5.7395C5.7395 6.30224 9.72311 2.1145 14.4999 2.1145V1.20825V0.302002C8.59922 0.302002 3.927 5.42869 3.927 11.6104H4.83325ZM14.4999 1.20825V2.1145C19.2767 2.1145 23.2603 6.30224 23.2603 11.6104H24.1666H25.0728C25.0728 5.42869 20.4006 0.302002 14.4999 0.302002V1.20825ZM17.86 23.8047L17.1469 23.2454C16.399 24.1992 15.9066 24.8222 15.4656 25.2228C15.0634 25.5881 14.795 25.6836 14.4999 25.6836V26.5899V27.4961C15.3809 27.4961 16.0644 27.1275 16.6843 26.5644C17.2654 26.0365 17.865 25.267 18.5732 24.3639L17.86 23.8047ZM11.1398 23.8047L10.4267 24.3639C11.1348 25.267 11.7345 26.0365 12.3155 26.5644C12.9354 27.1275 13.619 27.4961 14.4999 27.4961V26.5899V25.6836C14.2049 25.6836 13.9364 25.5881 13.5342 25.2228C13.0933 24.8222 12.6008 24.1992 11.8529 23.2454L11.1398 23.8047ZM10.8749 12.0833H9.96867C9.96867 14.5858 11.9974 16.6145 14.4999 16.6145V15.7083V14.802C12.9984 14.802 11.7812 13.5848 11.7812 12.0833H10.8749ZM14.4999 15.7083V16.6145C17.0025 16.6145 19.0312 14.5858 19.0312 12.0833H18.1249H17.2187C17.2187 13.5848 16.0014 14.802 14.4999 14.802V15.7083ZM18.1249 12.0833H19.0312C19.0312 9.58071 17.0025 7.552 14.4999 7.552V8.45825V9.3645C16.0014 9.3645 17.2187 10.5817 17.2187 12.0833H18.1249ZM14.4999 8.45825V7.552C11.9974 7.552 9.96867 9.58071 9.96867 12.0833H10.8749H11.7812C11.7812 10.5817 12.9984 9.3645 14.4999 9.3645V8.45825Z" fill="#0B3C5D"/>
</svg>
