<svg width="20" height="20" viewBox="0 0 20 20" fill="none" xmlns="http://www.w3.org/2000/svg">
<path d="M11.75 4.16797C11.75 4.58218 12.0858 4.91797 12.5 4.91797C12.9142 4.91797 13.25 4.58218 13.25 4.16797H12.5H11.75ZM13.25 1.66797C13.25 1.25375 12.9142 0.917969 12.5 0.917969C12.0858 0.917969 11.75 1.25375 11.75 1.66797H12.5H13.25ZM6.75 4.16797C6.75 4.58218 7.08579 4.91797 7.5 4.91797C7.91421 4.91797 8.25 4.58218 8.25 4.16797H7.5H6.75ZM8.25 1.66797C8.25 1.25375 7.91421 0.917969 7.5 0.917969C7.08579 0.917969 6.75 1.25375 6.75 1.66797H7.5H8.25ZM10 18.3346V17.5846C8.42091 17.5846 7.29683 17.5836 6.4285 17.4895C5.57421 17.3969 5.05688 17.2216 4.6584 16.9321L4.21756 17.5388L3.77672 18.1456C4.47352 18.6518 5.28502 18.8744 6.26693 18.9808C7.23481 19.0856 8.45432 19.0846 10 19.0846V18.3346ZM2.5 10.8346H1.75C1.75 12.3803 1.74897 13.5998 1.85383 14.5677C1.96022 15.5496 2.18275 16.3611 2.689 17.0579L3.29576 16.617L3.90253 16.1762C3.61301 15.7777 3.43766 15.2604 3.34511 14.4061C3.25103 13.5378 3.25 12.4137 3.25 10.8346H2.5ZM4.21756 17.5388L4.6584 16.9321C4.36834 16.7213 4.11326 16.4662 3.90253 16.1762L3.29576 16.617L2.689 17.0579C2.99226 17.4753 3.35932 17.8423 3.77672 18.1456L4.21756 17.5388ZM16.7042 16.617L16.0975 16.1762C15.8867 16.4662 15.6317 16.7213 15.3416 16.9321L15.7824 17.5388L16.2233 18.1456C16.6407 17.8423 17.0077 17.4753 17.311 17.0579L16.7042 16.617ZM17.5 10.8346H18.25C18.25 9.28895 18.251 8.06944 18.1462 7.10156C18.0398 6.11965 17.8173 5.30815 17.311 4.61136L16.7042 5.05219L16.0975 5.49303C16.387 5.89151 16.5623 6.40884 16.6549 7.26313C16.749 8.13146 16.75 9.25554 16.75 10.8346H17.5ZM15.7824 4.1304L15.3416 4.73716C15.6317 4.9479 15.8867 5.20298 16.0975 5.49303L16.7042 5.05219L17.311 4.61136C17.0077 4.19396 16.6407 3.82689 16.2233 3.52363L15.7824 4.1304ZM2.5 10.8346H3.25C3.25 9.25554 3.25103 8.13146 3.34511 7.26313C3.43766 6.40884 3.61301 5.89151 3.90253 5.49303L3.29576 5.05219L2.689 4.61136C2.18275 5.30815 1.96022 6.11965 1.85383 7.10156C1.74897 8.06944 1.75 9.28895 1.75 10.8346H2.5ZM4.21756 4.1304L3.77672 3.52363C3.35932 3.82689 2.99226 4.19396 2.689 4.61136L3.29576 5.05219L3.90253 5.49303C4.11326 5.20298 4.36834 4.9479 4.6584 4.73716L4.21756 4.1304ZM16.0149 13.3859L15.8975 12.6451C13.7937 12.9783 12.1437 14.6283 11.8105 16.7321L12.5513 16.8494L13.2921 16.9668C13.5236 15.5048 14.6702 14.3582 16.1322 14.1267L16.0149 13.3859ZM7.5 4.16797H8.25V3.35874H7.5H6.75V4.16797H7.5ZM7.5 3.35874H8.25V1.66797H7.5H6.75V3.35874H7.5ZM10 3.33463V2.58463C9.03005 2.58463 8.19352 2.58454 7.47432 2.60918L7.5 3.35874L7.52568 4.1083C8.21372 4.08473 9.02174 4.08463 10 4.08463V3.33463ZM7.5 3.35874L7.47432 2.60918C5.91157 2.66272 4.72962 2.83132 3.77672 3.52363L4.21756 4.1304L4.6584 4.73716C5.21318 4.33409 5.98145 4.16121 7.52568 4.1083L7.5 3.35874ZM12.5 4.16797H13.25V3.35874H12.5H11.75V4.16797H12.5ZM12.5 3.35874H13.25V1.66797H12.5H11.75V3.35874H12.5ZM10 3.33463V4.08463C10.9783 4.08463 11.7863 4.08473 12.4743 4.1083L12.5 3.35874L12.5257 2.60918C11.8065 2.58454 10.97 2.58463 10 2.58463V3.33463ZM12.5 3.35874L12.4743 4.1083C14.0185 4.16121 14.7868 4.33409 15.3416 4.73716L15.7824 4.1304L16.2233 3.52363C15.2704 2.83132 14.0884 2.66272 12.5257 2.60918L12.5 3.35874ZM17.4759 13.3346V12.5846C16.7452 12.5846 16.2908 12.5828 15.8975 12.6451L16.0149 13.3859L16.1322 14.1267C16.3799 14.0874 16.6903 14.0846 17.4759 14.0846V13.3346ZM17.5 10.8346H16.75C16.75 11.8129 16.7499 12.6209 16.7263 13.3089L17.4759 13.3346L18.2255 13.3603C18.2501 12.6411 18.25 11.8045 18.25 10.8346H17.5ZM17.4759 13.3346L16.7263 13.3089C16.6734 14.8531 16.5005 15.6214 16.0975 16.1762L16.7042 16.617L17.311 17.0579C18.0033 16.105 18.1719 14.923 18.2255 13.3603L17.4759 13.3346ZM12.5 18.3105H13.25C13.25 17.5249 13.2528 17.2145 13.2921 16.9668L12.5513 16.8494L11.8105 16.7321C11.7482 17.1254 11.75 17.5798 11.75 18.3105H12.5ZM10 18.3346V19.0846C10.97 19.0846 11.8065 19.0847 12.5257 19.06L12.5 18.3105L12.4743 17.5609C11.7863 17.5845 10.9783 17.5846 10 17.5846V18.3346ZM12.5 18.3105L12.5257 19.06C14.0884 19.0065 15.2704 18.8379 16.2233 18.1456L15.7824 17.5388L15.3416 16.9321C14.7868 17.3351 14.0185 17.508 12.4743 17.5609L12.5 18.3105Z" fill="white"/>
<path d="M6.66667 7.5013C6.66667 7.96154 6.29357 8.33463 5.83333 8.33463C5.3731 8.33463 5 7.96154 5 7.5013C5 7.04106 5.3731 6.66797 5.83333 6.66797C6.29357 6.66797 6.66667 7.04106 6.66667 7.5013Z" fill="white"/>
<path d="M6.66667 10.8333C6.66667 11.2935 6.29357 11.6666 5.83333 11.6666C5.3731 11.6666 5 11.2935 5 10.8333C5 10.3731 5.3731 10 5.83333 10C6.29357 10 6.66667 10.3731 6.66667 10.8333Z" fill="white"/>
<path d="M10.8346 7.5013C10.8346 7.96154 10.4615 8.33463 10.0013 8.33463C9.54106 8.33463 9.16797 7.96154 9.16797 7.5013C9.16797 7.04106 9.54106 6.66797 10.0013 6.66797C10.4615 6.66797 10.8346 7.04106 10.8346 7.5013Z" fill="white"/>
<path d="M10.8346 10.8333C10.8346 11.2935 10.4615 11.6666 10.0013 11.6666C9.54106 11.6666 9.16797 11.2935 9.16797 10.8333C9.16797 10.3731 9.54106 10 10.0013 10C10.4615 10 10.8346 10.3731 10.8346 10.8333Z" fill="white"/>
<path d="M10.8346 14.1653C10.8346 14.6256 10.4615 14.9987 10.0013 14.9987C9.54106 14.9987 9.16797 14.6256 9.16797 14.1653C9.16797 13.7051 9.54106 13.332 10.0013 13.332C10.4615 13.332 10.8346 13.7051 10.8346 14.1653Z" fill="white"/>
<path d="M14.9987 7.5013C14.9987 7.96154 14.6256 8.33463 14.1654 8.33463C13.7051 8.33463 13.332 7.96154 13.332 7.5013C13.332 7.04106 13.7051 6.66797 14.1654 6.66797C14.6256 6.66797 14.9987 7.04106 14.9987 7.5013Z" fill="white"/>
<path d="M14.9987 10.8333C14.9987 11.2935 14.6256 11.6666 14.1654 11.6666C13.7051 11.6666 13.332 11.2935 13.332 10.8333C13.332 10.3731 13.7051 10 14.1654 10C14.6256 10 14.9987 10.3731 14.9987 10.8333Z" fill="white"/>
<path d="M6.66667 14.1653C6.66667 14.6256 6.29357 14.9987 5.83333 14.9987C5.3731 14.9987 5 14.6256 5 14.1653C5 13.7051 5.3731 13.332 5.83333 13.332C6.29357 13.332 6.66667 13.7051 6.66667 14.1653Z" fill="white"/>
</svg>
