<svg width="12" height="7" viewBox="0 0 12 7" fill="none" xmlns="http://www.w3.org/2000/svg">
<path d="M0.254778 0.254979C0.0916313 0.418405 0 0.639891 0 0.870813C0 1.10173 0.0916313 1.32322 0.254778 1.48665L5.17478 6.41165C5.36478 6.60165 5.62144 6.68665 5.86978 6.66331C6.09478 6.66331 6.31894 6.57915 6.48978 6.40831L11.4123 1.48581C11.4931 1.405 11.5572 1.30905 11.6009 1.20346C11.6447 1.09786 11.6672 0.98469 11.6672 0.870396C11.6672 0.756103 11.6447 0.642928 11.6009 0.537335C11.5572 0.431742 11.4931 0.335797 11.4123 0.254979C11.3315 0.174161 11.2355 0.110054 11.1299 0.0663153C11.0243 0.0225771 10.9112 6.51655e-05 10.7969 6.51677e-05C10.6826 6.517e-05 10.5694 0.0225771 10.4638 0.0663153C10.3582 0.110054 10.2623 0.174161 10.1814 0.254979L5.83144 4.60498L1.48478 0.254979C1.40405 0.174148 1.30819 0.110022 1.20266 0.0662708C1.09713 0.0225192 0.984015 0 0.869778 0C0.755541 0 0.642424 0.0225192 0.536897 0.0662708C0.43137 0.110022 0.335502 0.174148 0.254778 0.254979Z" fill="black"/>
</svg>
